<svg xmlns="http://www.w3.org/2000/svg" version="1.1" xmlns:xlink="http://www.w3.org/1999/xlink" width="512" height="512" x="0" y="0" viewBox="0 0 512 512" style="enable-background:new 0 0 512 512" xml:space="preserve" class=""><g><path fill="#f8f8f8" d="M15.453 480.462C6.918 480.462 0 473.544 0 465.01V97.824L10.302 50.29c0-8.534 6.918-15.453 15.453-15.453l453.334 3.181c8.534 0 22.609 6.918 22.609 11.374v394.17c0 12.613-15.297 33.853-23.831 33.853l-11.158 3.047z" opacity="1" data-original="#f5f8f9" class=""></path><path fill="#0058c0" d="M507.941 50.719v43.718l-31.548 3.285L0 97.824V46.99c0-8.54 6.923-15.453 15.453-15.453h447.79l26.586 1.07c8.53 0 18.112 9.572 18.112 18.112z" opacity="1" data-original="#756e78" class=""></path><path fill="#f8f8f8" d="M499.385 88.8 512 97.722V465.01c0 8.534-6.918 15.453-15.453 15.453h-32.144l3.258-1.929a17.789 17.789 0 0 0 8.726-15.307v-21.148l-11.984-30.956 11.985-30.956.001-40.817-7.716-28.497 7.717-33.415.001-40.619-6.845-32.717 6.846-29.195.001-77.184z" opacity="1" data-original="#e6edf4" class=""></path><path fill="#0058c0" d="M512 46.99v50.731h-35.607V51.566a20.237 20.237 0 0 0-10.622-17.807l-4.115-2.222h34.891C505.077 31.538 512 38.45 512 46.99z" opacity="1" data-original="#655f66" class=""></path><circle cx="35.613" cy="64.32" r="7.726" fill="#3491ff" opacity="1" data-original="#fe93d3" class=""></circle><circle cx="70.763" cy="64.32" r="7.726" fill="#ffef57" opacity="1" data-original="#ffef57" class=""></circle><g fill="#66c6a6"><circle cx="105.913" cy="64.32" r="7.726" fill="#ff5050" opacity="1" data-original="#66c6a6" class=""></circle><path d="M471.014 242.191h-75.939a5.373 5.373 0 0 1-5.373-5.373v-61.912a5.373 5.373 0 0 1 5.373-5.373h75.939a5.373 5.373 0 0 1 5.373 5.373v61.912a5.374 5.374 0 0 1-5.373 5.373zM471.014 344.722h-75.939a5.373 5.373 0 0 1-5.373-5.373v-61.912a5.373 5.373 0 0 1 5.373-5.373h75.939a5.373 5.373 0 0 1 5.373 5.373v61.912a5.374 5.374 0 0 1-5.373 5.373zM471.014 447.451h-75.939a5.373 5.373 0 0 1-5.373-5.373v-61.912a5.373 5.373 0 0 1 5.373-5.373h75.939a5.373 5.373 0 0 1 5.373 5.373v61.912a5.374 5.374 0 0 1-5.373 5.373z" fill="#ff5050" opacity="1" data-original="#66c6a6" class=""></path></g><path fill="#40a089" d="M432.644 220.388a7.727 7.727 0 0 1-5.777-2.596l-14.895-16.773a7.726 7.726 0 1 1 11.553-10.26l8.73 9.83 27.689-35.536a7.727 7.727 0 0 1 12.189 9.498l-33.395 42.859a7.725 7.725 0 0 1-6.094 2.978zM432.644 322.92a7.729 7.729 0 0 1-5.778-2.596l-14.894-16.773a7.726 7.726 0 1 1 11.553-10.26l8.73 9.83 27.689-35.536a7.728 7.728 0 0 1 12.189 9.498l-33.395 42.86a7.722 7.722 0 0 1-6.094 2.977zM432.644 425.45a7.729 7.729 0 0 1-5.778-2.596l-14.894-16.773a7.726 7.726 0 1 1 11.553-10.26l8.73 9.83 27.689-35.535a7.727 7.727 0 0 1 12.189 9.498l-33.395 42.859a7.722 7.722 0 0 1-6.094 2.977z" opacity="1" data-original="#40a089" class=""></path><path fill="#ffef57" d="M122.303 174.904v27.722l-21.669 9.702a4.858 4.858 0 0 0-4.862 4.862l-13.038 25.005H40.991a5.382 5.382 0 0 1-5.378-5.378v-61.914a5.373 5.373 0 0 1 5.378-5.367h75.935a5.374 5.374 0 0 1 5.377 5.368z" opacity="1" data-original="#ffef57" class=""></path><path fill="#f9db48" d="m122.303 202.626-39.569 39.569v-34.707a4.858 4.858 0 0 1 4.862-4.862z" opacity="1" data-original="#f9db48" class=""></path><path fill="#ffef57" d="M122.303 277.701v27.722l-21.669 9.702a4.858 4.858 0 0 0-4.862 4.862l-13.038 25.005H40.991a5.382 5.382 0 0 1-5.378-5.378V277.7a5.373 5.373 0 0 1 5.378-5.367h75.935a5.374 5.374 0 0 1 5.377 5.368z" opacity="1" data-original="#ffef57" class=""></path><path fill="#f9db48" d="m122.303 305.423-39.569 39.569v-34.707a4.858 4.858 0 0 1 4.862-4.862z" opacity="1" data-original="#f9db48" class=""></path><path fill="#3491ff" d="M240.33 174.904v27.722l-21.669 9.702a4.858 4.858 0 0 0-4.862 4.862l-13.038 25.005h-41.743a5.382 5.382 0 0 1-5.378-5.378v-61.914a5.373 5.373 0 0 1 5.378-5.367h75.935a5.374 5.374 0 0 1 5.377 5.368z" opacity="1" data-original="#fe93d3" class=""></path><path fill="#0058c0" d="m240.33 202.626-39.569 39.569v-34.707a4.858 4.858 0 0 1 4.862-4.862z" opacity="1" data-original="#fe73c5" class=""></path><path fill="#3491ff" d="M240.33 277.701v27.722l-21.669 9.702a4.858 4.858 0 0 0-4.862 4.862l-13.038 25.005h-41.743a5.382 5.382 0 0 1-5.378-5.378V277.7a5.373 5.373 0 0 1 5.378-5.367h75.935a5.374 5.374 0 0 1 5.377 5.368z" opacity="1" data-original="#fe93d3" class=""></path><path fill="#0058c0" d="m240.33 305.423-39.569 39.569v-34.707a4.858 4.858 0 0 1 4.862-4.862z" opacity="1" data-original="#fe73c5" class=""></path><path fill="#ffef57" d="M358.357 174.904v27.722l-21.669 9.702a4.858 4.858 0 0 0-4.862 4.862l-13.038 25.005h-41.743a5.382 5.382 0 0 1-5.378-5.378v-61.914a5.373 5.373 0 0 1 5.378-5.367h75.935a5.374 5.374 0 0 1 5.377 5.368z" opacity="1" data-original="#ffef57" class=""></path><path fill="#f9db48" d="m358.357 202.626-39.569 39.569v-34.707a4.858 4.858 0 0 1 4.862-4.862z" opacity="1" data-original="#f9db48" class=""></path><path fill="#ffef57" d="M122.303 380.498v27.722l-21.669 9.702a4.858 4.858 0 0 0-4.862 4.862l-13.038 25.005H40.991a5.382 5.382 0 0 1-5.378-5.378v-61.914a5.373 5.373 0 0 1 5.378-5.367h75.935a5.373 5.373 0 0 1 5.377 5.368z" opacity="1" data-original="#ffef57" class=""></path><path fill="#f9db48" d="m122.303 408.22-39.569 39.569v-34.707a4.858 4.858 0 0 1 4.862-4.862z" opacity="1" data-original="#f9db48" class=""></path><path fill="#cee0ea" d="M468.66 138.446h-78.959a7.726 7.726 0 1 1 0-15.452h78.959c4.268 0 7.726 3.459 7.726 7.726s-3.458 7.726-7.726 7.726zM358.357 138.446h-86.685a7.726 7.726 0 1 1 0-15.452h86.685c4.268 0 7.726 3.459 7.726 7.726s-3.458 7.726-7.726 7.726zM240.328 138.446h-86.686a7.726 7.726 0 1 1 0-15.452h86.686a7.726 7.726 0 1 1 0 15.452zM122.298 138.446H43.34a7.726 7.726 0 1 1 0-15.452h78.959a7.726 7.726 0 1 1-.001 15.452z" opacity="1" data-original="#cee0ea" class=""></path></g></svg>