<svg xmlns="http://www.w3.org/2000/svg" version="1.1" xmlns:xlink="http://www.w3.org/1999/xlink" width="512" height="512" x="0" y="0" viewBox="0 0 60 60" style="enable-background:new 0 0 512 512" xml:space="preserve" class=""><g><path fill="#ffffff" d="M7 43H3a2 2 0 0 1-2-2V3a2 2 0 0 1 2-2h30a2 2 0 0 1 2 2v2z" opacity="1" data-original="#dadfe5" class=""></path><path fill="#dedede" d="M13 47H9a2 2 0 0 1-2-2V7a2 2 0 0 1 2-2h30a2 2 0 0 1 2 2v2z" opacity="1" data-original="#c3c9d1" class=""></path><path fill="#ffffff" d="M19 51h-4a2 2 0 0 1-2-2V11a2 2 0 0 1 2-2h30a2 2 0 0 1 2 2v2z" opacity="1" data-original="#dadfe5" class=""></path><path fill="#dedede" d="M25 55h-4a2 2 0 0 1-2-2V15a2 2 0 0 1 2-2h30a2 2 0 0 1 2 2v2z" opacity="1" data-original="#c3c9d1" class=""></path><rect width="34" height="42" x="25" y="17" fill="#ffffff" rx="2" opacity="1" data-original="#dadfe5" class=""></rect><rect width="24" height="6" x="30" y="21" fill="#ec3a48" rx="1" opacity="1" data-original="#ec3a48" class=""></rect><rect width="24" height="6" x="30" y="35" fill="#faa116" rx="1" opacity="1" data-original="#faa116" class=""></rect><rect width="24" height="6" x="30" y="49" fill="#31b791" rx="1" opacity="1" data-original="#31b791" class=""></rect><g fill="#585f6b"><path d="M32 32h-1a1 1 0 0 1 0-2h1a1 1 0 0 1 0 2zM53 32H36a1 1 0 0 1 0-2h17a1 1 0 0 1 0 2zM32 46h-1a1 1 0 0 1 0-2h1a1 1 0 0 1 0 2zM53 46H36a1 1 0 0 1 0-2h17a1 1 0 0 1 0 2z" fill="#585f6b" opacity="1" data-original="#585f6b" class=""></path></g></g></svg>