<svg xmlns="http://www.w3.org/2000/svg" version="1.1" xmlns:xlink="http://www.w3.org/1999/xlink" width="512" height="512" x="0" y="0" viewBox="0 0 512 512" style="enable-background:new 0 0 512 512" xml:space="preserve" class=""><g><path fill="#3491ff" d="M457 60H336v30h121c13.785 0 25 11.215 25 25v101c0 13.785-11.215 25-25 25H336v30h121c30.327 0 55-24.673 55-55V115c0-30.327-24.673-55-55-55z" opacity="1" data-original="#453d82" class=""></path><path fill="#3491ff" d="M55 271h121v-30H55c-30.327 0-55 24.673-55 55v101c0 30.327 24.673 55 55 55h121v-30H55c-13.785 0-25-11.215-25-25V296c0-13.785 11.215-25 25-25zM176 60H51.213l14.394-14.394c5.858-5.858 5.858-15.355 0-21.213-5.858-5.858-15.355-5.858-21.213 0l-40 40c-5.858 5.858-5.858 15.355 0 21.213l40 40c5.858 5.858 15.355 5.858 21.213 0 5.858-5.858 5.858-15.355 0-21.213L51.213 90H176z" opacity="1" data-original="#514899" class=""></path><path fill="#3491ff" d="m507.606 426.394-40-40c-5.858-5.858-15.355-5.858-21.213 0-5.858 5.858-5.858 15.355 0 21.213L460.787 422H336v30h124.787l-14.394 14.394c-5.858 5.858-5.858 15.355 0 21.213 5.858 5.858 15.355 5.858 21.213 0l40-40c5.858-5.858 5.858-15.356 0-21.213z" opacity="1" data-original="#453d82" class=""></path><path fill="#ef3d3d" d="M161 196v120c0 8.284 6.716 15 15 15h80l30-75-30-75h-80c-8.284 0-15 6.716-15 15z" opacity="1" data-original="#ff80a9" class=""></path><path fill="#f3bd00" d="M176 0c-8.284 0-15 6.716-15 15v120c0 8.284 6.716 15 15 15h80l30-75-30-75z" opacity="1" data-original="#7ed7f5" class=""></path><path fill="#0058c0" d="M161 377v120c0 8.284 6.716 15 15 15h80l30-75-30-75h-80c-8.284 0-15 6.716-15 15z" opacity="1" data-original="#ffdd55" class=""></path><path fill="#eb5353" d="M336 331c8.284 0 15-6.716 15-15V196c0-8.284-6.716-15-15-15h-80v150z" opacity="1" data-original="#ef5ca4" class=""></path><path fill="#ffd237" d="M351 135V15c0-8.284-6.716-15-15-15h-80v150h80c8.284 0 15-6.716 15-15z" opacity="1" data-original="#6aa8ff" class=""></path><path fill="#3491ff" d="M336 512c8.284 0 15-6.716 15-15V377c0-8.284-6.716-15-15-15h-80v150z" opacity="1" data-original="#ffb555" class=""></path></g></svg>