<svg class="svg-icon" style="width: 1em;height: 1em;vertical-align: middle;fill: currentColor;overflow: hidden;" viewBox="0 0 1024 1024" version="1.1" xmlns="http://www.w3.org/2000/svg"><path d="M536.97561 466.394537h324.682927l149.853658 149.853658v-424.585366c0-54.946341-44.956098-99.902439-99.902439-99.902439H536.97561c-54.946341 0-99.902439 44.956098-99.902439 99.902439v174.829269c0 54.946341 44.956098 99.902439 99.902439 99.902439z" fill="#1565C0" /><path d="M487.02439 391.467707H162.341463l-149.853658 149.853659v-424.585366c0-54.946341 44.956098-99.902439 99.902439-99.902439h374.634146c54.946341 0 99.902439 44.956098 99.902439 99.902439v174.829268c0 54.946341-44.956098 99.902439-99.902439 99.902439z" fill="#2196F3" /><path d="M212.292683 691.175024m-124.878049 0a124.878049 124.878049 0 1 0 249.756098 0 124.878049 124.878049 0 1 0-249.756098 0Z" fill="#FFA726" /><path d="M811.707317 691.175024m-124.878049 0a124.878049 124.878049 0 1 0 249.756098 0 124.878049 124.878049 0 1 0-249.756098 0Z" fill="#FFA726" /><path d="M412.097561 965.906732s-54.946341-99.902439-199.804878-99.902439-199.804878 99.902439-199.804878 99.902439v49.951219h399.609756v-49.951219zM1011.512195 965.906732s-54.946341-99.902439-199.804878-99.902439-199.804878 99.902439-199.804878 99.902439v49.951219h399.609756v-49.951219z" fill="#607D8B" /></svg>