<svg xmlns="http://www.w3.org/2000/svg" version="1.1" xmlns:xlink="http://www.w3.org/1999/xlink" width="512" height="512" x="0" y="0" viewBox="0 0 512 512" style="enable-background:new 0 0 512 512" xml:space="preserve" class=""><g><path fill="#5f99d7" d="M426.747 512H85.253c-18.13 0-32.828-14.697-32.828-32.828V55.432c0-18.13 14.697-32.828 32.828-32.828h341.493c18.13 0 32.828 14.697 32.828 32.828v423.74c0 18.131-14.697 32.828-32.827 32.828z" opacity="1" data-original="#5f99d7"></path><path fill="#3c87d0" d="M121.942 511.999H85.257c-18.131 0-32.832-14.701-32.832-32.832V55.432c0-18.131 14.701-32.832 32.832-32.832h36.685c-18.131 0-32.822 14.701-32.822 32.832v423.735c.001 18.131 14.691 32.832 32.822 32.832z" opacity="1" data-original="#3c87d0" class=""></path><path fill="#e8edf2" d="M86.422 455.482V79.123c0-12.439 10.083-22.522 22.522-22.522h294.113c12.439 0 22.522 10.083 22.522 22.522v376.359c0 12.439-10.083 22.522-22.522 22.522H108.944c-12.439 0-22.522-10.084-22.522-22.522z" opacity="1" data-original="#e8edf2" class=""></path><path fill="#ffe177" d="M351.943 80.896H160.057c-14.598 0-26.432-11.834-26.432-26.432v-28.03c0-14.598 11.834-26.432 26.432-26.432h191.887c14.598 0 26.432 11.834 26.432 26.432v28.029c0 14.599-11.834 26.433-26.433 26.433z" opacity="1" data-original="#ffe177" class=""></path><path fill="#ffd15b" d="M210.713 80.89h-50.654c-14.598 0-26.434-11.826-26.434-26.424V26.434C133.624 11.837 145.461 0 160.059 0h50.654c-14.598 0-26.434 11.837-26.434 26.434v28.031c-.001 14.598 11.836 26.425 26.434 26.425z" opacity="1" data-original="#ffd15b"></path><path fill="#9be69d" d="M190.763 204.145h-57.278c-8.219 0-14.882-6.663-14.882-14.882v-57.278c0-8.219 6.663-14.882 14.882-14.882h57.278c8.219 0 14.882 6.663 14.882 14.882v57.278c0 8.219-6.663 14.882-14.882 14.882z" opacity="1" data-original="#9be69d" class=""></path><g fill="#017297"><path d="M159.033 185.789a7.728 7.728 0 0 1-6.042-2.912L138.033 164.1a7.726 7.726 0 0 1 12.086-9.628l7.787 9.775 14.525-25.988c2.081-3.725 6.789-5.057 10.514-2.975s5.057 6.789 2.975 10.514l-20.141 36.035a7.725 7.725 0 0 1-6.746 3.956zM344.463 149.754H240.912a7.726 7.726 0 1 1 0-15.452h103.551a7.726 7.726 0 1 1 0 15.452zM378.375 184.244H240.912a7.726 7.726 0 1 1 0-15.452h137.463a7.726 7.726 0 0 1 7.726 7.726 7.725 7.725 0 0 1-7.726 7.726z" fill="#017297" opacity="1" data-original="#017297" class=""></path></g><path fill="#9be69d" d="M190.763 324.622h-57.278c-8.219 0-14.882-6.663-14.882-14.882v-57.278c0-8.219 6.663-14.882 14.882-14.882h57.278c8.219 0 14.882 6.663 14.882 14.882v57.278c0 8.219-6.663 14.882-14.882 14.882z" opacity="1" data-original="#9be69d" class=""></path><g fill="#017297"><path d="M159.033 306.267a7.726 7.726 0 0 1-6.042-2.912l-14.958-18.778a7.726 7.726 0 0 1 12.086-9.628l7.787 9.775 14.525-25.988c2.081-3.725 6.789-5.057 10.514-2.975s5.057 6.789 2.975 10.514l-20.141 36.035a7.725 7.725 0 0 1-6.746 3.957zM344.463 270.231H240.912a7.726 7.726 0 1 1 0-15.452h103.551a7.726 7.726 0 1 1 0 15.452zM378.375 304.721H240.912a7.726 7.726 0 1 1 0-15.452h137.463a7.726 7.726 0 1 1 0 15.452z" fill="#017297" opacity="1" data-original="#017297" class=""></path></g><path fill="#9be69d" d="M190.763 445.1h-57.278c-8.219 0-14.882-6.663-14.882-14.882V372.94c0-8.219 6.663-14.882 14.882-14.882h57.278c8.219 0 14.882 6.663 14.882 14.882v57.278c0 8.219-6.663 14.882-14.882 14.882z" opacity="1" data-original="#9be69d" class=""></path><g fill="#017297"><path d="M159.033 426.744a7.728 7.728 0 0 1-6.042-2.912l-14.958-18.777a7.726 7.726 0 0 1 12.086-9.628l7.787 9.775 14.525-25.988c2.081-3.725 6.789-5.057 10.514-2.975s5.057 6.789 2.975 10.514l-20.141 36.035a7.725 7.725 0 0 1-6.746 3.956zM344.463 390.709H240.912a7.726 7.726 0 1 1 0-15.452h103.551a7.726 7.726 0 1 1 0 15.452zM378.375 425.199H240.912a7.726 7.726 0 1 1 0-15.452h137.463a7.726 7.726 0 1 1 0 15.452z" fill="#017297" opacity="1" data-original="#017297" class=""></path></g></g></svg>