<svg xmlns="http://www.w3.org/2000/svg" version="1.1" xmlns:xlink="http://www.w3.org/1999/xlink" width="512" height="512" x="0" y="0" viewBox="0 0 512 512" style="enable-background:new 0 0 512 512" xml:space="preserve" class=""><g><path fill="#e4eaf8" d="M251.234 380.316c0-72.726 53.832-126.558 126.559-126.558 28.828 0 55.488 9.27 77.176 24.984V139.855H12.89v298.106a8.359 8.359 0 0 0 8.359 8.36h247.7c-11.263-19.407-17.716-41.954-17.716-66.005zm0 0" opacity="1" data-original="#e4eaf8" class=""></path><path fill="#54a0ff" d="M246.008 194.887h-24.156c-6.899 0-12.543 5.64-12.543 12.539v24.16c0 6.898 5.644 12.539 12.543 12.539h24.156c6.898 0 12.543-5.64 12.543-12.54v-24.16c0-6.894-5.645-12.538-12.543-12.538zm0 0" opacity="1" data-original="#54a0ff" class=""></path><path fill="#338def" d="M240.063 231.586v-24.16c0-5.754 3.933-10.625 9.246-12.082a12.448 12.448 0 0 0-3.301-.457h-24.156c-6.899 0-12.543 5.64-12.543 12.539v24.16c0 6.898 5.644 12.539 12.543 12.539h24.156c1.144 0 2.246-.168 3.3-.457-5.312-1.457-9.245-6.324-9.245-12.082zm0 0" opacity="1" data-original="#338def" class=""></path><path fill="#54a0ff" d="M246.008 268.746h-24.156c-6.899 0-12.543 5.645-12.543 12.543v24.156c0 6.899 5.644 12.543 12.543 12.543h24.156c6.898 0 12.543-5.644 12.543-12.543V281.29c0-6.898-5.645-12.543-12.543-12.543zm0 0" opacity="1" data-original="#54a0ff" class=""></path><path fill="#338def" d="M240.063 305.45v-24.16c0-5.759 3.933-10.626 9.246-12.087a12.448 12.448 0 0 0-3.301-.457h-24.156c-6.899 0-12.543 5.645-12.543 12.543v24.156c0 6.899 5.644 12.543 12.543 12.543h24.156c1.144 0 2.246-.168 3.3-.457-5.312-1.46-9.245-6.328-9.245-12.082zm0 0" opacity="1" data-original="#338def" class=""></path><path fill="#54a0ff" d="M246.008 342.61h-24.156c-6.899 0-12.543 5.644-12.543 12.538v24.16c0 6.899 5.644 12.54 12.543 12.54h24.156c6.898 0 12.543-5.641 12.543-12.54v-24.16c0-6.894-5.645-12.539-12.543-12.539zm0 0" opacity="1" data-original="#54a0ff" class=""></path><path fill="#338def" d="M240.063 379.309v-24.16c0-5.754 3.933-10.626 9.246-12.083a12.448 12.448 0 0 0-3.301-.457h-24.156c-6.899 0-12.543 5.641-12.543 12.54v24.16c0 6.898 5.644 12.539 12.543 12.539h24.156c1.144 0 2.246-.168 3.3-.457-5.312-1.457-9.245-6.325-9.245-12.082zm0 0" opacity="1" data-original="#338def" class=""></path><path fill="#d8dce5" d="M43.645 437.96V139.856H12.89v298.106a8.359 8.359 0 0 0 8.359 8.36h30.754a8.359 8.359 0 0 1-8.36-8.36zm0 0" opacity="1" data-original="#d8dce5" class=""></path><path fill="#54a0ff" d="M94.379 194.887h-24.16c-6.899 0-12.54 5.64-12.54 12.539v24.16c0 6.898 5.641 12.539 12.54 12.539h24.16c6.898 0 12.539-5.64 12.539-12.54v-24.16c0-6.894-5.64-12.538-12.54-12.538zm0 0" opacity="1" data-original="#54a0ff" class=""></path><path fill="#338def" d="M88.434 231.586v-24.16c0-5.754 3.933-10.625 9.242-12.082a12.441 12.441 0 0 0-3.297-.457h-24.16c-6.899 0-12.54 5.64-12.54 12.539v24.16c0 6.898 5.641 12.539 12.54 12.539h24.16c1.14 0 2.242-.168 3.297-.457-5.309-1.457-9.242-6.324-9.242-12.082zm0 0" opacity="1" data-original="#338def" class=""></path><path fill="#feca57" d="M509.477 380.316C509.477 453.043 450.52 512 377.793 512s-131.684-58.957-131.684-131.684c0-72.726 58.957-131.683 131.684-131.683s131.684 58.957 131.684 131.683zm0 0" opacity="1" data-original="#feca57" class=""></path><path fill="#f4b537" d="M276.863 380.316c0-67.527 50.824-123.168 116.309-130.785a132.402 132.402 0 0 0-15.379-.898c-72.727 0-131.684 58.957-131.684 131.683C246.11 453.043 305.066 512 377.793 512c5.203 0 10.332-.313 15.379-.898-65.485-7.618-116.309-63.262-116.309-130.786zm0 0" opacity="1" data-original="#f4b537" class=""></path><path fill="#e4eaf8" d="M480.742 380.316c0 56.856-46.094 102.95-102.949 102.95-56.86 0-102.95-46.094-102.95-102.95 0-56.859 46.09-102.953 102.95-102.953 56.855 0 102.95 46.094 102.95 102.953zm0 0" opacity="1" data-original="#e4eaf8" class=""></path><path fill="#d8dce5" d="M305.598 380.316c0-51.632 38.007-94.382 87.574-101.804a103.468 103.468 0 0 0-15.379-1.145c-56.86 0-102.95 46.09-102.95 102.95s46.09 102.949 102.95 102.949c5.227 0 10.36-.395 15.379-1.145-49.567-7.422-87.574-50.176-87.574-101.805zm0 0" opacity="1" data-original="#d8dce5" class=""></path><path fill="#576574" d="M377.793 381.242a7.69 7.69 0 0 1-7.691-7.687V316.59a7.691 7.691 0 0 1 7.691-7.692 7.688 7.688 0 0 1 7.687 7.692v56.965a7.687 7.687 0 0 1-7.687 7.687zm0 0" opacity="1" data-original="#576574" class=""></path><path fill="#576574" d="M426.996 388.004h-40.93c-4.246 0-7.687-3.442-7.687-7.688s3.441-7.687 7.687-7.687h40.93a7.687 7.687 0 1 1 0 15.375zm0 0" opacity="1" data-original="#576574" class=""></path><path fill="#ff6b6b" d="M455.316 41.516H12.54C5.645 41.516 0 47.16 0 54.055v78.382c0 6.899 5.645 12.543 12.54 12.543h442.776c6.899 0 12.543-5.644 12.543-12.542v-78.38c0-6.898-5.644-12.542-12.543-12.542zm0 0" opacity="1" data-original="#ff6b6b" class=""></path><path fill="#ee5253" d="M30.754 132.441V54.06c0-6.899 5.644-12.543 12.543-12.543H12.539C5.645 41.516 0 47.16 0 54.059v78.382c0 6.895 5.645 12.54 12.54 12.54h30.757c-6.899 0-12.543-5.645-12.543-12.54zm0 0" opacity="1" data-original="#ee5253" class=""></path><g fill="#e4eaf8"><path d="M73.531 90.809c-5.773 0-10.453-4.68-10.453-10.45V10.45C63.078 4.68 67.758 0 73.531 0c5.77 0 10.45 4.68 10.45 10.45v69.91c0 5.769-4.68 10.449-10.45 10.449zM153.73 90.809c-5.773 0-10.453-4.68-10.453-10.45V10.45C143.277 4.68 147.957 0 153.73 0c5.77 0 10.45 4.68 10.45 10.45v69.91c0 5.769-4.68 10.449-10.45 10.449zM233.93 90.809c-5.774 0-10.453-4.68-10.453-10.45V10.45C223.477 4.68 228.157 0 233.93 0c5.77 0 10.449 4.68 10.449 10.45v69.91c0 5.769-4.68 10.449-10.45 10.449zM314.129 90.809c-5.774 0-10.45-4.68-10.45-10.45V10.45C303.677 4.68 308.356 0 314.13 0c5.773 0 10.45 4.68 10.45 10.45v69.91c0 5.769-4.68 10.449-10.45 10.449zM394.328 90.809c-5.773 0-10.453-4.68-10.453-10.45V10.45c0-5.77 4.68-10.449 10.453-10.449 5.77 0 10.45 4.68 10.45 10.45v69.91c0 5.769-4.68 10.449-10.45 10.449zm0 0" fill="#e4eaf8" opacity="1" data-original="#e4eaf8" class=""></path></g><path fill="#ff6b6b" d="M393.355 380.316c0 8.594-6.968 15.563-15.562 15.563-8.598 0-15.563-6.969-15.563-15.563 0-8.597 6.965-15.562 15.563-15.562 8.594 0 15.562 6.965 15.562 15.562zm0 0" opacity="1" data-original="#ff6b6b" class=""></path><path fill="#ee5253" d="M383.758 380.316c0-4.414 1.847-8.39 4.797-11.222a15.483 15.483 0 0 0-10.762-4.34c-8.598 0-15.563 6.969-15.563 15.562s6.965 15.563 15.563 15.563c4.18 0 7.969-1.656 10.762-4.34-2.95-2.832-4.797-6.809-4.797-11.223zm0 0" opacity="1" data-original="#ee5253" class=""></path><path fill="#54a0ff" d="M94.379 268.746h-24.16c-6.899 0-12.54 5.645-12.54 12.543v24.156c0 6.899 5.641 12.543 12.54 12.543h24.16c6.898 0 12.539-5.644 12.539-12.543V281.29c0-6.898-5.64-12.543-12.54-12.543zm0 0" opacity="1" data-original="#54a0ff" class=""></path><path fill="#338def" d="M88.434 305.45v-24.16c0-5.759 3.933-10.626 9.242-12.087a12.441 12.441 0 0 0-3.297-.457h-24.16c-6.899 0-12.54 5.645-12.54 12.543v24.156c0 6.899 5.641 12.543 12.54 12.543h24.16c1.14 0 2.242-.168 3.297-.457-5.309-1.46-9.242-6.328-9.242-12.082zm0 0" opacity="1" data-original="#338def" class=""></path><path fill="#54a0ff" d="M94.379 342.61h-24.16c-6.899 0-12.54 5.644-12.54 12.538v24.16c0 6.899 5.641 12.54 12.54 12.54h24.16c6.898 0 12.539-5.641 12.539-12.54v-24.16c0-6.894-5.64-12.539-12.54-12.539zm0 0" opacity="1" data-original="#54a0ff" class=""></path><path fill="#338def" d="M88.434 379.309v-24.16c0-5.754 3.933-10.626 9.242-12.083a12.441 12.441 0 0 0-3.297-.457h-24.16c-6.899 0-12.54 5.641-12.54 12.54v24.16c0 6.898 5.641 12.539 12.54 12.539h24.16c1.14 0 2.242-.168 3.297-.457-5.309-1.457-9.242-6.325-9.242-12.082zm0 0" opacity="1" data-original="#338def" class=""></path><path fill="#54a0ff" d="M170.191 194.887h-24.156c-6.898 0-12.543 5.64-12.543 12.539v24.16c0 6.898 5.645 12.539 12.543 12.539h24.156c6.899 0 12.543-5.64 12.543-12.54v-24.16c0-6.894-5.644-12.538-12.543-12.538zm0 0" opacity="1" data-original="#54a0ff" class=""></path><path fill="#338def" d="M164.246 231.586v-24.16c0-5.754 3.938-10.625 9.246-12.082a12.448 12.448 0 0 0-3.3-.457h-24.157c-6.898 0-12.543 5.64-12.543 12.539v24.16c0 6.898 5.645 12.539 12.543 12.539h24.156c1.145 0 2.246-.168 3.301-.457-5.308-1.457-9.246-6.324-9.246-12.082zm0 0" opacity="1" data-original="#338def" class=""></path><path fill="#54a0ff" d="M170.191 268.746h-24.156c-6.898 0-12.543 5.645-12.543 12.543v24.156c0 6.899 5.645 12.543 12.543 12.543h24.156c6.899 0 12.543-5.644 12.543-12.543V281.29c0-6.898-5.644-12.543-12.543-12.543zm0 0" opacity="1" data-original="#54a0ff" class=""></path><path fill="#338def" d="M164.246 305.45v-24.16c0-5.759 3.938-10.626 9.246-12.087a12.448 12.448 0 0 0-3.3-.457h-24.157c-6.898 0-12.543 5.645-12.543 12.543v24.156c0 6.899 5.645 12.543 12.543 12.543h24.156c1.145 0 2.246-.168 3.301-.457-5.308-1.46-9.246-6.328-9.246-12.082zm0 0" opacity="1" data-original="#338def" class=""></path><path fill="#54a0ff" d="M170.191 342.61h-24.156c-6.898 0-12.543 5.644-12.543 12.538v24.16c0 6.899 5.645 12.54 12.543 12.54h24.156c6.899 0 12.543-5.641 12.543-12.54v-24.16c0-6.894-5.644-12.539-12.543-12.539zm0 0" opacity="1" data-original="#54a0ff" class=""></path><path fill="#338def" d="M164.246 379.309v-24.16c0-5.754 3.938-10.626 9.246-12.083a12.448 12.448 0 0 0-3.3-.457h-24.157c-6.898 0-12.543 5.641-12.543 12.54v24.16c0 6.898 5.645 12.539 12.543 12.539h24.156c1.145 0 2.246-.168 3.301-.457-5.308-1.457-9.246-6.325-9.246-12.082zm0 0" opacity="1" data-original="#338def" class=""></path><path fill="#54a0ff" d="M321.824 194.887h-24.16c-6.898 0-12.539 5.64-12.539 12.539v24.16c0 6.898 5.64 12.539 12.54 12.539h24.16c6.898 0 12.538-5.64 12.538-12.54v-24.16c0-6.894-5.64-12.538-12.539-12.538zm0 0" opacity="1" data-original="#54a0ff" class=""></path><path fill="#338def" d="M315.879 231.586v-24.16c0-5.754 3.933-10.625 9.242-12.082a12.441 12.441 0 0 0-3.297-.457h-24.16c-6.894 0-12.539 5.64-12.539 12.539v24.16c0 6.898 5.645 12.539 12.54 12.539h24.16c1.14 0 2.245-.168 3.296-.457-5.309-1.457-9.242-6.324-9.242-12.082zm0 0" opacity="1" data-original="#338def" class=""></path><path fill="#54a0ff" d="M397.559 194.887h-24.157c-6.898 0-12.543 5.64-12.543 12.539v24.16c0 6.898 5.645 12.539 12.543 12.539h24.157c6.898 0 12.543-5.64 12.543-12.54v-24.16c0-6.894-5.645-12.538-12.543-12.538zm0 0" opacity="1" data-original="#54a0ff" class=""></path><path fill="#338def" d="M391.613 231.586v-24.16c0-5.754 3.938-10.625 9.246-12.082a12.448 12.448 0 0 0-3.3-.457h-24.157c-6.898 0-12.543 5.64-12.543 12.539v24.16c0 6.898 5.645 12.539 12.543 12.539h24.157c1.144 0 2.246-.168 3.3-.457-5.308-1.457-9.246-6.324-9.246-12.082zm0 0" opacity="1" data-original="#338def" class=""></path><path fill="#d8dce5" d="M480.457 372.629h-15.91a7.69 7.69 0 1 0 0 15.379h15.91c.188-2.54.285-5.106.285-7.692 0-2.586-.097-5.148-.285-7.687zM370.102 277.652v15.907a7.691 7.691 0 0 0 7.691 7.691 7.688 7.688 0 0 0 7.687-7.691v-15.907c-2.539-.187-5.101-.289-7.687-.289-2.59 0-5.152.102-7.691.29zm0 0" opacity="1" data-original="#d8dce5" class=""></path><path fill="#cacfd8" d="M298.723 380.316a7.687 7.687 0 0 0-7.688-7.687h-15.91c-.188 2.539-.285 5.101-.285 7.687 0 2.586.098 5.153.289 7.692h15.906a7.688 7.688 0 0 0 7.688-7.692zm0 0" opacity="1" data-original="#cacfd8" class=""></path><path fill="#d8dce5" d="M385.48 467.07a7.69 7.69 0 0 0-15.379 0v15.91c2.54.188 5.102.286 7.692.286 2.586 0 5.148-.098 7.687-.286zm0 0" opacity="1" data-original="#d8dce5" class=""></path></g></svg>