<svg xmlns="http://www.w3.org/2000/svg" version="1.1" xmlns:xlink="http://www.w3.org/1999/xlink" width="512" height="512" x="0" y="0" viewBox="0 0 512 512" style="enable-background:new 0 0 512 512" xml:space="preserve" class=""><g><g fill-rule="evenodd" clip-rule="evenodd"><path fill="#eff4f7" d="M356.086 492.113H11V135.362L126.475 19.887h229.611z" opacity="1" data-original="#eff4f7" class=""></path><path fill="#e2e3e3" d="M126.475 19.887 11 135.362h95.365c11.076 0 20.109-9.033 20.109-20.109V19.887z" opacity="1" data-original="#e2e3e3" class=""></path><path fill="#1980f2" d="M186.016 58.38h110.525v38.489H186.016z" opacity="1" data-original="#1980f2" class=""></path><path fill="#96abbc" d="M54.061 452.279c-4.971 0-9-4.029-9-9s4.029-9 9-9h150.738c4.971 0 9 4.029 9 9s-4.029 9-9 9zm0-269.428a9 9 0 0 1 0-18h258.963c4.973 0 9 4.03 9 9 0 4.971-4.027 9-9 9zm0 67.356a9 9 0 0 1 0-18h160.646a9 9 0 0 1 0 18zm0 67.358c-4.971 0-9-4.029-9-9s4.029-9 9-9H181.17c4.971 0 9 4.029 9 9s-4.029 9-9 9zm0 67.357a9 9 0 0 1 0-18H181.17a9 9 0 0 1 0 18z" opacity="1" data-original="#96abbc" class=""></path><path fill="#008fe4" d="M331.902 202.282h48.365v33.438a113.426 113.426 0 0 1 37.541 15.555l23.648-23.647 34.199 34.2-23.648 23.647a113.379 113.379 0 0 1 15.555 37.541H501v48.366h-33.438a113.43 113.43 0 0 1-15.555 37.541l23.648 23.647-34.201 34.199-23.646-23.647a113.405 113.405 0 0 1-37.541 15.555v33.437h-48.365v-33.437a113.368 113.368 0 0 1-37.541-15.554l-23.646 23.647-34.199-34.2 23.645-23.647a113.48 113.48 0 0 1-15.555-37.541h-33.438v-48.366h33.438a113.438 113.438 0 0 1 15.555-37.541l-23.646-23.648 34.201-34.199 23.646 23.646a113.39 113.39 0 0 1 37.541-15.554v-33.438z" opacity="1" data-original="#fad808" class=""></path><circle cx="356.086" cy="347.198" r="65.481" fill="#eff4f7" opacity="1" data-original="#eff4f7" class=""></circle></g></g></svg>